<svg width="25" height="24" viewBox="0 0 25 24" fill="none" xmlns="http://www.w3.org/2000/svg">
<path fill-rule="evenodd" clip-rule="evenodd" d="M12.3038 0C5.50949 0 0 5.50827 0 12.3038C0 17.7402 3.52542 22.3519 8.41409 23.9791C9.0288 24.0932 9.25455 23.7122 9.25455 23.3872C9.25455 23.0938 9.24314 22.1246 9.23784 21.0965C5.81491 21.8407 5.09263 19.6448 5.09263 19.6448C4.53294 18.2226 3.72651 17.8445 3.72651 17.8445C2.60998 17.0808 3.81066 17.0967 3.81066 17.0967C5.04597 17.1833 5.69674 18.3646 5.69674 18.3646C6.79411 20.2452 8.57505 19.7016 9.27716 19.3874C9.38759 18.5922 9.70645 18.0492 10.0583 17.742C7.32548 17.4313 4.45246 16.3761 4.45246 11.6616C4.45246 10.3183 4.9333 9.22072 5.72037 8.35888C5.59242 8.04918 5.17127 6.79778 5.83936 5.10302C5.83936 5.10302 6.87235 4.77234 9.22358 6.36421C10.2052 6.09139 11.258 5.95427 12.3038 5.94958C13.349 5.95427 14.4024 6.09098 15.3859 6.3638C17.7342 4.77193 18.766 5.10261 18.766 5.10261C19.4357 6.79717 19.0146 8.04878 18.8868 8.35847C19.6757 9.22032 20.1531 10.3179 20.1531 11.6612C20.1531 16.3869 17.2748 17.4272 14.535 17.732C14.9765 18.1138 15.3698 18.8628 15.3698 20.0105C15.3698 21.6568 15.3555 22.9817 15.3555 23.387C15.3555 23.7144 15.5772 24.098 16.2007 23.9772C21.0865 22.3485 24.6078 17.7381 24.6078 12.3038C24.6076 5.50868 19.0987 0 12.3038 0Z" fill="white"/>
<path d="M4.66009 17.6654C4.63299 17.7265 4.53682 17.7448 4.44921 17.7031C4.35956 17.6631 4.30964 17.5798 4.33857 17.5185C4.36506 17.4553 4.46143 17.438 4.55047 17.4802C4.64012 17.5203 4.69105 17.6044 4.65988 17.6656L4.66009 17.6654ZM5.15845 18.2214C5.09997 18.2758 4.98526 18.2505 4.90743 18.1643C4.82675 18.0788 4.81167 17.9641 4.87137 17.9088C4.93209 17.8546 5.04333 17.8803 5.12401 17.9659C5.20429 18.0527 5.22018 18.1664 5.15865 18.2216L5.15845 18.2214ZM5.64377 18.9298C5.56838 18.9824 5.44491 18.9333 5.36871 18.8239C5.29333 18.7143 5.29333 18.5828 5.37075 18.5305C5.44675 18.4779 5.56838 18.5254 5.64581 18.6338C5.72079 18.7448 5.72079 18.8764 5.64377 18.9298ZM6.30819 19.6146C6.24095 19.689 6.09711 19.669 5.99197 19.5677C5.8846 19.4685 5.85465 19.3273 5.92209 19.2532C5.99055 19.1786 6.135 19.1994 6.24075 19.3C6.34812 19.399 6.38052 19.5404 6.30859 19.6144L6.30819 19.6146ZM7.22504 20.0121C7.19509 20.1085 7.05695 20.1523 6.91739 20.1111C6.77823 20.069 6.68715 19.9563 6.71568 19.8589C6.7442 19.7617 6.88336 19.7163 7.02374 19.7601C7.1629 19.8021 7.25397 19.9141 7.22504 20.0121ZM8.23216 20.0857C8.23562 20.1871 8.11745 20.2711 7.97136 20.2731C7.82406 20.2766 7.70486 20.1943 7.70344 20.0944C7.70344 19.9919 7.81916 19.909 7.96627 19.9062C8.11236 19.9035 8.23236 19.985 8.23236 20.0855L8.23216 20.0857ZM9.16898 19.9263C9.1865 20.0252 9.08483 20.1268 8.93956 20.1539C8.79694 20.1804 8.66451 20.1189 8.64617 20.0209C8.62865 19.9194 8.73215 19.8177 8.87477 19.7915C9.02025 19.7664 9.15064 19.8259 9.16898 19.9263Z" fill="#181616"/>
</svg>
