<svg width="24" height="24" viewBox="0 0 24 24" fill="none" xmlns="http://www.w3.org/2000/svg">
<path d="M20.33 3.67008C20.1408 3.48225 19.9035 3.3502 19.6442 3.28845C19.3849 3.22671 19.1135 3.23765 18.86 3.32008L4.23 8.20008C3.95867 8.28606 3.71891 8.45051 3.54099 8.67267C3.36307 8.89484 3.25498 9.16474 3.23037 9.4483C3.20576 9.73186 3.26573 10.0164 3.40271 10.2658C3.5397 10.5153 3.74754 10.7186 4 10.8501L10.07 13.8501L13.07 19.9401C13.1906 20.1785 13.3751 20.3786 13.6029 20.5181C13.8307 20.6576 14.0929 20.731 14.36 20.7301H14.46C14.7461 20.709 15.0192 20.6024 15.2439 20.424C15.4686 20.2457 15.6345 20.0039 15.72 19.7301L20.67 5.14008C20.7584 4.88801 20.7734 4.61602 20.7132 4.35578C20.653 4.09553 20.5201 3.85774 20.33 3.67008ZM4.85 9.58008L17.62 5.32008L10.53 12.4101L4.85 9.58008ZM14.43 19.1501L11.59 13.4701L18.68 6.38008L14.43 19.1501Z" fill="black"/>
</svg>
