<svg width="85" height="13" viewBox="0 0 85 13" fill="none" xmlns="http://www.w3.org/2000/svg">
<path d="M79.6044 12.024V10.92H84.9804V12.024H79.6044Z" fill="#066F9C"/>
<path d="M72.3131 10.92V2.4H73.8491L76.6451 9.132V2.4H77.8811V10.92H76.3451L73.5491 4.188V10.92H72.3131Z" fill="#066F9C"/>
<path d="M64.5898 10.92L67.0858 2.4H68.7178L71.2138 10.92H69.9058L67.9018 3.708L65.8978 10.92H64.5898ZM65.9818 8.7L66.3658 7.536H69.4378L69.8218 8.7H65.9818Z" fill="#066F9C"/>
<path d="M58.2825 10.92V2.4H59.5425V10.44L58.7745 9.732H63.6105V10.92H58.2825Z" fill="#066F9C"/>
<path d="M52.8872 10.92V7.416L50.3552 2.4H51.7472L53.5112 6.12L55.2752 2.4H56.6672L54.1472 7.416V10.92H52.8872Z" fill="#066F9C"/>
<path d="M45.5719 10.92L43.0399 2.4H44.3719L46.5079 9.9H46.1239L48.2599 2.4H49.5919L47.0599 10.92H45.5719Z" fill="#066F9C"/>
<path d="M35.8085 10.92L38.3046 2.4H39.9366L42.4325 10.92H41.1245L39.1205 3.708L37.1166 10.92H35.8085ZM37.2006 8.7L37.5845 7.536H40.6566L41.0406 8.7H37.2006ZM38.5806 1.608L39.3605 0H40.6926L39.6125 1.608H38.5806Z" fill="#066F9C"/>
<path d="M21.9459 10.92V2.4H23.4819L26.2779 9.132V2.4H27.5139V10.92H25.9779L23.1819 4.188V10.92H21.9459Z" fill="#066F9C"/>
<path d="M14.6066 10.92V2.4H15.8666V6.504L15.3026 6.048H19.7666L19.2026 6.504V2.4H20.4626V10.92H19.2026V6.768L19.7666 7.224H15.3026L15.8666 6.768V10.92H14.6066Z" fill="#066F9C"/>
<path d="M10.3393 11.112C9.65931 11.112 9.08331 10.94 8.61131 10.596C8.14731 10.252 7.79131 9.748 7.54331 9.084C7.29531 8.42 7.17131 7.616 7.17131 6.672C7.17131 5.712 7.29531 4.9 7.54331 4.236C7.79131 3.572 8.14731 3.068 8.61131 2.724C9.08331 2.38 9.65931 2.208 10.3393 2.208C11.0193 2.208 11.5953 2.38 12.0673 2.724C12.5393 3.068 12.8953 3.572 13.1353 4.236C13.3833 4.9 13.5073 5.712 13.5073 6.672C13.5073 7.616 13.3833 8.42 13.1353 9.084C12.8953 9.748 12.5393 10.252 12.0673 10.596C11.5953 10.94 11.0193 11.112 10.3393 11.112ZM10.3393 9.936C10.7393 9.936 11.0753 9.816 11.3473 9.576C11.6273 9.336 11.8393 8.972 11.9833 8.484C12.1273 7.996 12.1993 7.392 12.1993 6.672C12.1993 5.952 12.1273 5.348 11.9833 4.86C11.8393 4.364 11.6273 3.996 11.3473 3.756C11.0753 3.508 10.7393 3.384 10.3393 3.384C9.93931 3.384 9.59931 3.508 9.31931 3.756C9.04731 3.996 8.83931 4.364 8.69531 4.86C8.55131 5.348 8.47931 5.952 8.47931 6.672C8.47931 7.392 8.55131 7.996 8.69531 8.484C8.83931 8.972 9.04731 9.336 9.31931 9.576C9.59931 9.816 9.93931 9.936 10.3393 9.936Z" fill="#066F9C"/>
<path d="M2.844 11.112C2.276 11.112 1.78 10.992 1.356 10.752C0.94 10.504 0.612 10.152 0.372 9.696C0.14 9.24 0.016 8.7 0 8.076L1.248 7.98C1.264 8.644 1.404 9.136 1.668 9.456C1.932 9.776 2.328 9.936 2.856 9.936C3.384 9.936 3.776 9.78 4.032 9.468C4.296 9.148 4.428 8.668 4.428 8.028V2.4H5.688V8.028C5.688 8.988 5.436 9.744 4.932 10.296C4.428 10.84 3.732 11.112 2.844 11.112Z" fill="#066F9C"/>
</svg>
