<svg width="519" height="510" viewBox="0 0 519 510" fill="none" xmlns="http://www.w3.org/2000/svg">
<rect width="518.289" height="509.606" rx="254.803" fill="white"/>
<path d="M231.153 482.337L233.355 484.207L230.051 487.909L234.878 488.57L234.468 491.566L229.641 490.905L231.829 495.359L229.205 496.569L227.128 491.918L223.878 495.839L221.675 493.969L224.98 490.267L220.153 489.607L220.563 486.61L225.39 487.271L223.202 482.817L225.826 481.608L227.909 486.217L231.153 482.337Z" fill="black"/>
<path d="M180.483 453.379L168.261 480.579L161.633 477.601C159.232 476.522 157.392 475.051 156.111 473.186C154.794 471.336 154.122 469.177 154.095 466.709C154.031 464.255 154.653 461.572 155.962 458.661C157.27 455.749 158.863 453.503 160.74 451.921C162.591 450.328 164.646 449.409 166.905 449.166C169.137 448.91 171.454 449.322 173.855 450.401L180.483 453.379ZM174.756 455.364L172.266 454.245C169.788 453.132 167.524 453.081 165.473 454.094C163.385 455.12 161.606 457.268 160.137 460.537C158.669 463.806 158.244 466.562 158.863 468.805C159.445 471.062 160.975 472.747 163.452 473.86L165.942 474.979L174.756 455.364Z" fill="black"/>
<path d="M152.829 440.019L136.852 465.198L121.39 455.387L123.618 451.876L135.356 459.325L140.014 451.984L128.701 444.805L130.861 441.401L142.174 448.579L146.877 441.167L134.855 433.539L137.083 430.028L152.829 440.019Z" fill="black"/>
<path d="M120.929 416.414C122.566 417.817 123.719 419.376 124.387 421.092C125.034 422.79 125.218 424.533 124.939 426.322C124.642 428.132 123.882 429.878 122.662 431.561L119.026 428.833C119.807 427.621 120.292 426.451 120.484 425.325C120.675 424.198 120.573 423.133 120.178 422.131C119.765 421.15 119.08 420.25 118.123 419.43C117.188 418.628 116.301 418.071 115.463 417.758C114.606 417.467 113.808 417.409 113.066 417.586C112.325 417.762 111.673 418.179 111.108 418.838C110.525 419.519 110.174 420.251 110.056 421.034C109.937 421.818 110.11 422.778 110.575 423.913C111.04 425.049 111.878 426.524 113.09 428.337C114.278 430.092 115.133 431.654 115.655 433.024C116.178 434.394 116.325 435.663 116.098 436.832C115.87 438.002 115.255 439.171 114.253 440.34C113.142 441.637 111.869 442.52 110.436 442.987C108.963 443.458 107.426 443.487 105.825 443.074C104.204 442.643 102.595 441.744 101.001 440.378C99.4276 439.03 98.3524 437.574 97.7752 436.009C97.1768 434.427 97.0324 432.81 97.342 431.158C97.6121 429.509 98.3014 427.887 99.4098 426.292L103.018 429.053C102.377 430.016 101.966 430.99 101.784 431.977C101.58 432.946 101.643 433.885 101.971 434.793C102.281 435.722 102.882 436.569 103.775 437.335C105.029 438.41 106.293 438.958 107.565 438.979C108.798 439.003 109.834 438.526 110.672 437.548C111.237 436.889 111.553 436.219 111.619 435.539C111.686 434.859 111.493 434.03 111.041 433.052C110.588 432.074 109.847 430.83 108.817 429.321C107.429 427.283 106.477 425.49 105.96 423.941C105.444 422.392 105.335 420.971 105.632 419.677C105.93 418.383 106.607 417.12 107.663 415.887C108.72 414.654 109.988 413.841 111.467 413.449C112.928 413.079 114.481 413.138 116.127 413.626C117.734 414.118 119.335 415.048 120.929 416.414Z" fill="black"/>
<path d="M106.713 404.499L78.5228 417.57L74.76 413.273L91.4411 387.056L94.4568 390.501L80.0858 412.406L103.698 401.055L106.713 404.499ZM97.6579 405.952L93.7074 407.625L86.6247 399.535L88.8045 395.84L97.6579 405.952Z" fill="black"/>
<path d="M85.2696 378.624L60.2614 394.866L50.104 379.227L53.5206 377.008L62.6485 391.062L59.2682 390.253L70.7508 382.795L70.3271 386.075L61.611 372.655L64.9924 370.459L73.7085 383.879L70.5395 382.932L82.8675 374.925L85.2696 378.624Z" fill="black"/>
<path d="M69.7812 353.323L66.0067 355.067L63.0115 348.586L43.4911 357.607L46.4864 364.088L42.7119 365.833L34.8891 348.905L38.6635 347.16L41.6587 353.642L61.1791 344.621L58.1838 338.139L61.9583 336.395L69.7812 353.323Z" fill="black"/>
<path d="M55.6873 316.182C56.3673 318.463 56.3665 320.567 55.6847 322.494C54.9949 324.394 53.6605 326.092 51.6814 327.588C49.7023 329.084 47.1297 330.304 43.9634 331.248C40.7435 332.208 37.896 332.604 35.4209 332.437C32.9457 332.269 30.8992 331.579 29.2814 330.367C27.6556 329.127 26.5026 327.368 25.8226 325.087C25.1425 322.806 25.1434 320.702 25.8251 318.775C26.5069 316.848 27.8413 315.15 29.8284 313.681C31.8075 312.185 34.407 310.957 37.6269 309.997C40.7932 309.053 43.6138 308.664 46.089 308.832C48.5561 308.973 50.6026 309.663 52.2284 310.902C53.8543 312.141 55.0072 313.901 55.6873 316.182ZM51.7429 317.358C51.3428 316.016 50.6043 315.01 49.5273 314.337C48.4423 313.638 47.0094 313.291 45.2286 313.296C43.4478 313.301 41.35 313.664 38.935 314.384C36.5201 315.104 34.5662 315.949 33.0734 316.92C31.5538 317.899 30.5315 318.979 30.0066 320.158C29.4468 321.318 29.3669 322.569 29.767 323.911C30.167 325.252 30.9229 326.269 32.0348 326.96C33.1118 327.632 34.5541 327.962 36.3617 327.949C38.1425 327.944 40.2404 327.581 42.6553 326.861C45.0703 326.141 47.0241 325.295 48.5169 324.324C50.0097 323.353 51.0225 322.292 51.5555 321.139C52.0804 319.96 52.1429 318.7 51.7429 317.358Z" fill="black"/>
<path d="M49 286.164C49.315 288.297 49.1619 290.23 48.5405 291.963C47.915 293.669 46.9101 295.105 45.5258 296.272C44.1137 297.443 42.3951 298.263 40.3699 298.732L39.4162 294.287C40.8002 293.885 41.934 293.321 42.8176 292.596C43.7011 291.871 44.3226 291.001 44.6821 289.986C45.0139 288.974 45.0877 287.846 44.9036 286.599C44.7236 285.38 44.4198 284.378 43.9924 283.592C43.5372 282.81 42.9722 282.243 42.2974 281.889C41.6225 281.536 40.8558 281.423 39.9971 281.55C39.1107 281.681 38.3658 282.003 37.7624 282.517C37.159 283.03 36.6601 283.868 36.2656 285.031C35.8712 286.193 35.5366 287.855 35.2618 290.019C35.0065 292.123 34.6267 293.863 34.1224 295.239C33.6182 296.616 32.8966 297.671 31.9576 298.404C31.0187 299.137 29.7874 299.616 28.264 299.841C26.5743 300.09 25.0351 299.921 23.6464 299.334C22.2258 298.723 21.047 297.737 20.11 296.375C19.1689 294.986 18.5449 293.252 18.238 291.175C17.9352 289.125 18.0791 287.321 18.6696 285.762C19.256 284.175 20.2081 282.86 21.5257 281.816C22.8115 280.749 24.3957 279.977 26.2783 279.501L27.1905 283.951C26.0753 284.257 25.1251 284.723 24.3401 285.349C23.551 285.946 22.9824 286.695 22.6342 287.596C22.2584 288.501 22.1564 289.535 22.3282 290.698C22.5696 292.332 23.1636 293.575 24.1101 294.426C25.0248 295.253 26.1192 295.572 27.3934 295.384C28.2521 295.257 28.9298 294.959 29.4265 294.489C29.9232 294.02 30.3215 293.268 30.6215 292.233C30.9215 291.198 31.178 289.773 31.3911 287.958C31.6804 285.51 32.1383 283.532 32.7647 282.024C33.3911 280.516 34.241 279.372 35.3143 278.59C36.3877 277.809 37.7277 277.3 39.3342 277.063C40.9408 276.825 42.4307 277.044 43.8041 277.718C45.1497 278.397 46.2833 279.461 47.2049 280.91C48.0947 282.335 48.6931 284.086 49 286.164Z" fill="black"/>
<path d="M32.0075 226.305L30.1297 228.502L26.4394 225.184L25.7615 230.008L22.767 229.588L23.4448 224.763L18.9832 226.935L17.7832 224.307L22.4411 222.247L18.5312 218.983L20.409 216.787L24.0993 220.105L24.7772 215.28L27.7718 215.701L27.0939 220.526L31.5555 218.353L32.7555 220.982L28.1392 223.048L32.0075 226.305Z" fill="black"/>
<path d="M61.1449 175.738L33.988 163.42L36.9894 156.803C38.0766 154.406 39.5547 152.571 41.4237 151.297C43.2789 149.986 45.4404 149.322 47.9083 149.304C50.3622 149.248 53.0427 149.88 55.9496 151.198C58.8566 152.517 61.0975 154.118 62.6725 156C64.259 157.858 65.1702 159.916 65.406 162.175C65.6535 164.409 65.2336 166.724 64.1463 169.121L61.1449 175.738ZM59.1799 170.004L60.3076 167.518C61.4295 165.045 61.488 162.781 60.4829 160.726C59.464 158.634 57.3225 156.848 54.0586 155.368C50.7947 153.887 48.0402 153.453 45.7952 154.064C43.5363 154.638 41.8459 156.162 40.724 158.635L39.5963 161.121L59.1799 170.004Z" fill="black"/>
<path d="M74.6021 148.131L49.4798 132.066L59.3453 116.638L62.8483 118.879L55.3586 130.591L62.683 135.274L69.9012 123.987L73.298 126.159L66.0799 137.447L73.475 142.176L81.1457 130.181L84.6487 132.421L74.6021 148.131Z" fill="black"/>
<path d="M98.3198 116.316C96.911 117.948 95.3475 119.095 93.6293 119.757C91.9294 120.398 90.1855 120.576 88.3977 120.29C86.5887 119.986 84.845 119.221 83.1667 117.994L85.908 114.369C87.1171 115.153 88.2846 115.643 89.4107 115.838C90.5368 116.034 91.6016 115.936 92.6052 115.544C93.5876 115.135 94.4904 114.453 95.3137 113.499C96.1187 112.566 96.679 111.681 96.9947 110.844C97.2892 109.989 97.3497 109.19 97.1761 108.449C97.0025 107.707 96.5871 107.053 95.9301 106.486C95.2518 105.9 94.5211 105.547 93.7379 105.426C92.9548 105.305 91.9945 105.474 90.857 105.935C89.7196 106.396 88.2423 107.229 86.425 108.434C84.6655 109.616 83.1 110.465 81.7285 110.983C80.357 111.501 79.0871 111.644 77.9186 111.412C76.7501 111.18 75.583 110.561 74.4172 109.555C73.1242 108.439 72.2464 107.163 71.7836 105.728C71.3179 104.254 71.2944 102.717 71.7129 101.118C72.1498 99.4974 73.0543 97.8924 74.4264 96.3027C75.7803 94.7341 77.2402 93.6641 78.8063 93.0924C80.3906 92.4996 82.0083 92.3609 83.6594 92.6763C85.3075 92.9523 86.9269 93.6473 88.5175 94.7613L85.7445 98.3598C84.7839 97.7156 83.8105 97.3008 82.8241 97.1151C81.856 96.9083 80.9173 96.9674 80.0081 97.2922C79.0777 97.5988 78.2283 98.1972 77.4599 99.0875C76.3805 100.338 75.828 101.6 75.8023 102.872C75.7738 104.105 76.247 105.142 77.2221 105.984C77.8792 106.551 78.5477 106.869 79.2278 106.938C79.9078 107.007 80.7376 106.817 81.7171 106.368C82.6966 105.919 83.9428 105.182 85.4557 104.158C87.4983 102.777 89.295 101.831 90.8456 101.32C92.3963 100.809 93.818 100.705 95.1107 101.007C96.4034 101.309 97.6645 101.991 98.8939 103.052C100.123 104.113 100.931 105.384 101.318 106.864C101.683 108.326 101.619 109.879 101.124 111.524C100.627 113.129 99.6919 114.726 98.3198 116.316Z" fill="black"/>
<path d="M110.285 102.142L97.3136 73.9053L101.624 70.1578L127.782 86.9313L124.327 89.9349L102.473 75.4865L113.74 99.1383L110.285 102.142ZM108.864 93.0814L107.205 89.125L115.32 82.0709L119.007 84.2638L108.864 93.0814Z" fill="black"/>
<path d="M136.236 80.7897L120.082 55.7242L135.757 45.6222L137.964 49.0466L123.878 58.1248L124.699 54.7474L132.116 66.2563L128.838 65.8209L142.288 57.1523L144.472 60.5414L131.022 69.2101L131.98 66.0445L139.943 78.4007L136.236 80.7897Z" fill="black"/>
<path d="M161.591 65.3908L159.86 61.6102L166.352 58.6379L157.4 39.0858L150.908 42.0581L149.177 38.2776L166.133 30.5146L167.864 34.2951L161.372 37.2675L170.324 56.8196L176.816 53.8472L178.547 57.6278L161.591 65.3908Z" fill="black"/>
<path d="M198.782 51.4282C196.499 52.1002 194.395 52.0919 192.47 51.4033C190.572 50.7069 188.879 49.3664 187.39 47.3821C185.901 45.3977 184.69 42.8207 183.757 39.6512C182.809 36.4279 182.423 33.579 182.599 31.1045C182.776 28.63 183.473 26.5859 184.691 24.9724C185.936 23.3509 187.7 22.2042 189.983 21.5322C192.266 20.8602 194.37 20.8685 196.295 21.5571C198.219 22.2456 199.913 23.5861 201.375 25.5783C202.864 27.5627 204.082 30.1665 205.031 33.3898C205.964 36.5594 206.342 39.3814 206.166 41.8559C206.016 44.3226 205.319 46.3666 204.074 47.988C202.829 49.6095 201.065 50.7562 198.782 51.4282ZM197.62 47.4797C198.963 47.0844 199.972 46.3494 200.648 45.2748C201.351 44.1923 201.703 42.7606 201.705 40.9798C201.706 39.199 201.351 37.0999 200.639 34.6824C199.928 32.2649 199.089 30.3081 198.123 28.8119C197.15 27.2888 196.074 26.2628 194.897 25.7336C193.739 25.1697 192.488 25.0854 191.145 25.4807C189.802 25.876 188.783 26.6284 188.088 27.7377C187.412 28.8124 187.077 30.2535 187.084 32.0612C187.082 33.842 187.438 35.9411 188.149 38.3586C188.861 40.7761 189.699 42.7329 190.665 44.2291C191.631 45.7253 192.689 46.7419 193.839 47.2789C195.016 47.808 196.277 47.875 197.62 47.4797Z" fill="black"/>
<path d="M228.823 44.847C226.69 45.1545 224.757 44.9945 223.026 44.3671C221.322 43.7356 219.89 42.7256 218.728 41.3371C217.562 39.921 216.748 38.1994 216.286 36.1726L220.734 35.2346C221.131 36.62 221.691 37.7558 222.413 38.6419C223.135 39.5281 224.003 40.1526 225.017 40.5157C226.027 40.851 227.156 40.9289 228.403 40.7491C229.622 40.5734 230.626 40.2732 231.413 39.8486C232.196 39.3962 232.766 38.8332 233.122 38.1596C233.477 37.486 233.593 36.7196 233.469 35.8605C233.341 34.9737 233.022 34.2276 232.51 33.6224C231.999 33.0172 231.162 32.5153 230.002 32.1168C228.841 31.7183 227.179 31.3778 225.017 31.0953C222.914 30.8326 221.175 30.4467 219.801 29.9375C218.426 29.4284 217.374 28.7031 216.644 27.7615C215.914 26.82 215.44 25.5871 215.22 24.0628C214.976 22.3723 215.151 20.8337 215.743 19.447C216.359 18.0287 217.349 16.8534 218.714 15.9212C220.107 14.9849 221.843 14.3671 223.921 14.0675C225.972 13.772 227.776 13.9223 229.333 14.5183C230.917 15.1103 232.229 16.067 233.268 17.3883C234.331 18.6779 235.097 20.2648 235.567 22.1491L231.113 23.0455C230.811 21.9292 230.348 20.9775 229.726 20.1902C229.131 19.399 228.384 18.8277 227.484 18.4764C226.581 18.0973 225.548 17.9917 224.384 18.1594C222.748 18.3951 221.504 18.9846 220.65 19.9281C219.819 20.8399 219.496 21.9332 219.68 23.208C219.803 24.0671 220.099 24.7459 220.567 25.2442C221.035 25.7426 221.786 26.1436 222.82 26.4472C223.854 26.7509 225.277 27.0125 227.091 27.232C229.539 27.5299 231.515 27.9948 233.021 28.6265C234.526 29.2582 235.668 30.1121 236.445 31.1883C237.223 32.2644 237.727 33.6061 237.959 35.2135C238.19 36.8209 237.967 38.3101 237.287 39.681C236.604 41.0242 235.536 42.1541 234.084 43.0706C232.655 43.9553 230.902 44.5475 228.823 44.847Z" fill="black"/>
<path d="M288.741 28.0663L286.552 26.1807L289.883 22.5022L285.061 21.8073L285.492 18.8142L290.314 19.5091L288.158 15.0398L290.79 13.8491L292.834 18.5143L296.111 14.6159L298.301 16.5015L294.97 20.18L299.792 20.8749L299.361 23.868L294.539 23.1731L296.695 27.6424L294.063 28.8331L292.013 24.2095L288.741 28.0663Z" fill="black"/>
<path d="M339.206 57.3822L351.62 30.2689L358.226 33.2937C360.619 34.3894 362.449 35.874 363.716 37.7475C365.02 39.6072 365.677 41.7711 365.687 44.239C365.733 46.6932 365.092 49.3714 363.763 52.2737C362.435 55.1759 360.826 57.4112 358.938 58.9795C357.075 60.5594 355.014 61.4633 352.754 61.6912C350.519 61.9307 348.205 61.5026 345.812 60.407L339.206 57.3822ZM344.946 55.4375L347.429 56.5739C349.898 57.7046 352.162 57.771 354.22 56.7733C356.315 55.7617 358.109 53.6266 359.601 50.3679C361.093 47.1092 361.537 44.3563 360.934 42.1092C360.368 39.8483 358.85 38.1525 356.381 37.0218L353.898 35.8853L344.946 55.4375Z" fill="black"/>
<path d="M366.765 70.9369L382.919 45.8714L398.311 55.7914L396.059 59.2865L384.373 51.7555L379.663 59.0633L390.925 66.3213L388.741 69.7104L377.479 62.4524L372.724 69.8308L384.692 77.5439L382.439 81.0389L366.765 70.9369Z" fill="black"/>
<path d="M398.496 94.7669C396.869 93.3524 395.727 91.7849 395.071 90.0644C394.436 88.3622 394.265 86.6177 394.557 84.8309C394.867 83.0229 395.638 81.282 396.871 79.608L400.487 82.3621C399.698 83.5684 399.204 84.7342 399.005 85.8596C398.806 86.985 398.9 88.0501 399.288 89.0551C399.694 90.0389 400.372 90.9442 401.323 91.7708C402.253 92.5791 403.136 93.1426 403.972 93.4612C404.826 93.7587 405.625 93.822 406.367 93.651C407.109 93.4801 407.765 93.067 408.335 92.412C408.922 91.7358 409.278 91.0063 409.402 90.2236C409.526 89.4409 409.36 88.48 408.903 87.3409C408.446 86.2019 407.618 84.7216 406.419 82.9001C405.244 81.1364 404.4 79.5679 403.887 78.1946C403.375 76.8213 403.236 75.5508 403.472 74.3832C403.708 73.2156 404.331 72.0506 405.341 70.8884C406.462 69.5994 407.741 68.726 409.177 68.2683C410.654 67.8079 412.19 67.7898 413.788 68.214C415.407 68.6565 417.009 69.5667 418.593 70.9444C420.157 72.3038 421.222 73.7676 421.788 75.3356C422.375 76.922 422.508 78.5402 422.187 80.1902C421.905 81.8373 421.205 83.4543 420.085 85.0409L416.496 82.2552C417.144 81.2969 417.562 80.3249 417.751 79.3392C417.962 78.3718 417.906 77.433 417.584 76.5226C417.281 75.5912 416.685 74.7397 415.798 73.9681C414.551 72.8843 413.292 72.3273 412.019 72.2971C410.786 72.2642 409.748 72.7338 408.903 73.7059C408.333 74.361 408.013 75.0284 407.941 75.7082C407.869 76.388 408.056 77.2184 408.502 78.1995C408.948 79.1806 409.68 80.4294 410.699 81.9459C412.073 83.9934 413.012 85.7934 413.518 87.3458C414.023 88.8983 414.123 90.3203 413.816 91.612C413.509 92.9036 412.823 94.1623 411.758 95.3879C410.692 96.6135 409.419 97.4171 407.937 97.7985C406.474 98.1588 404.921 98.0888 403.278 97.5883C401.675 97.0851 400.081 96.1447 398.496 94.7669Z" fill="black"/>
<path d="M412.628 106.782L440.91 93.9106L444.642 98.2346L427.776 124.332L424.785 120.867L439.31 99.0639L415.619 110.247L412.628 106.782ZM421.693 105.393L425.655 103.748L432.681 111.888L430.475 115.567L421.693 105.393Z" fill="black"/>
<path d="M433.888 132.808L459.01 116.743L469.057 132.453L465.625 134.648L456.596 120.53L459.971 121.363L448.436 128.74L448.883 125.463L457.504 138.944L454.107 141.116L445.486 127.635L448.648 128.604L436.264 136.524L433.888 132.808Z" fill="black"/>
<path d="M449.197 158.218L452.984 156.5L455.933 163.003L475.517 154.12L472.567 147.618L476.354 145.9L484.057 162.883L480.27 164.6L477.321 158.098L457.737 166.981L460.687 173.483L456.9 175.201L449.197 158.218Z" fill="black"/>
<path d="M463.028 195.458C462.364 193.172 462.38 191.068 463.075 189.146C463.779 187.25 465.125 185.562 467.115 184.08C469.104 182.598 471.685 181.396 474.858 180.475C478.085 179.537 480.935 179.161 483.409 179.347C485.883 179.532 487.924 180.236 489.534 181.46C491.151 182.711 492.291 184.479 492.955 186.764C493.619 189.05 493.603 191.154 492.908 193.076C492.213 194.998 490.866 196.687 488.869 198.142C486.879 199.624 484.271 200.833 481.044 201.77C477.872 202.692 475.048 203.06 472.574 202.875C470.108 202.717 468.067 202.012 466.45 200.762C464.833 199.511 463.692 197.743 463.028 195.458ZM466.981 194.309C467.371 195.654 468.103 196.666 469.175 197.346C470.255 198.053 471.685 198.41 473.466 198.417C475.247 198.425 477.347 198.077 479.767 197.374C482.187 196.671 484.147 195.839 485.647 194.879C487.173 193.911 488.203 192.839 488.736 191.664C489.304 190.507 489.393 189.257 489.003 187.912C488.612 186.568 487.863 185.546 486.756 184.847C485.684 184.167 484.244 183.828 482.436 183.828C480.656 183.82 478.555 184.168 476.135 184.871C473.715 185.574 471.756 186.406 470.256 187.366C468.756 188.327 467.736 189.381 467.195 190.53C466.662 191.705 466.59 192.965 466.981 194.309Z" fill="black"/>
<path d="M469.503 225.522C469.203 223.387 469.37 221.455 470.004 219.726C470.641 218.025 471.656 216.596 473.049 215.439C474.469 214.278 476.193 213.47 478.222 213.016L479.144 217.467C477.757 217.859 476.62 218.415 475.731 219.134C474.842 219.852 474.215 220.718 473.848 221.731C473.509 222.74 473.427 223.868 473.603 225.116C473.774 226.336 474.071 227.34 474.492 228.129C474.942 228.915 475.503 229.486 476.175 229.844C476.848 230.202 477.614 230.321 478.473 230.2C479.361 230.075 480.108 229.758 480.715 229.249C481.322 228.739 481.827 227.905 482.229 226.746C482.632 225.586 482.978 223.926 483.268 221.765C483.538 219.663 483.93 217.925 484.444 216.552C484.958 215.179 485.688 214.13 486.632 213.403C487.576 212.677 488.81 212.207 490.335 211.992C492.027 211.755 493.565 211.934 494.949 212.532C496.365 213.153 497.537 214.147 498.465 215.515C499.396 216.911 500.008 218.649 500.3 220.729C500.588 222.781 500.431 224.584 499.83 226.139C499.232 227.721 498.271 229.03 496.946 230.064C495.653 231.122 494.063 231.883 492.177 232.346L491.296 227.889C492.414 227.591 493.367 227.132 494.157 226.512C494.95 225.92 495.524 225.175 495.878 224.276C496.261 223.375 496.37 222.341 496.206 221.177C495.976 219.541 495.391 218.294 494.451 217.437C493.542 216.603 492.45 216.276 491.174 216.455C490.315 216.576 489.635 216.869 489.135 217.335C488.635 217.801 488.231 218.551 487.924 219.584C487.617 220.616 487.35 222.039 487.124 223.852C486.818 226.299 486.346 228.274 485.709 229.777C485.072 231.28 484.214 232.419 483.135 233.192C482.056 233.966 480.713 234.466 479.104 234.692C477.496 234.918 476.008 234.688 474.639 234.004C473.298 233.316 472.172 232.244 471.261 230.789C470.381 229.357 469.795 227.602 469.503 225.522Z" fill="black"/>
<path d="M486.072 285.499L487.965 283.317L491.632 286.66L492.344 281.841L495.336 282.282L494.624 287.102L499.101 284.961L500.282 287.598L495.61 289.625L499.496 292.917L497.603 295.099L493.936 291.756L493.224 296.575L490.233 296.133L490.945 291.314L486.468 293.455L485.286 290.818L489.917 288.784L486.072 285.499Z" fill="black"/>
<path d="M456.578 335.86L483.647 348.369L480.599 354.965C479.495 357.354 478.004 359.179 476.126 360.439C474.262 361.737 472.095 362.386 469.627 362.387C467.173 362.425 464.497 361.774 461.6 360.435C458.702 359.096 456.473 357.48 454.911 355.586C453.338 353.718 452.441 351.653 452.221 349.392C451.989 347.157 452.426 344.844 453.53 342.455L456.578 335.86ZM458.502 341.607L457.357 344.085C456.218 346.551 456.143 348.814 457.134 350.876C458.138 352.975 460.267 354.776 463.52 356.279C466.774 357.783 469.525 358.237 471.774 357.642C474.037 357.083 475.738 355.572 476.877 353.106L478.023 350.628L458.502 341.607Z" fill="black"/>
<path d="M442.926 363.371L467.934 379.613L457.96 394.97L454.473 392.705L462.045 381.047L454.754 376.311L447.456 387.547L444.075 385.351L451.373 374.115L444.011 369.334L436.256 381.274L432.769 379.009L442.926 363.371Z" fill="black"/>
<path d="M418.984 395.018C420.404 393.396 421.976 392.259 423.699 391.609C425.403 390.98 427.148 390.815 428.934 391.113C430.741 391.43 432.479 392.207 434.148 393.446L431.382 397.052C430.178 396.259 429.014 395.761 427.889 395.558C426.765 395.355 425.699 395.445 424.693 395.829C423.708 396.232 422.8 396.907 421.97 397.855C421.158 398.782 420.592 399.663 420.27 400.498C419.97 401.352 419.904 402.15 420.072 402.892C420.24 403.635 420.651 404.293 421.304 404.864C421.978 405.455 422.706 405.813 423.489 405.94C424.271 406.066 425.232 405.903 426.373 405.451C427.514 404.998 428.997 404.175 430.823 402.983C432.591 401.814 434.162 400.975 435.537 400.467C436.912 399.959 438.183 399.825 439.35 400.066C440.517 400.306 441.679 400.933 442.838 401.947C444.123 403.072 444.992 404.354 445.445 405.792C445.9 407.27 445.913 408.807 445.483 410.403C445.034 412.02 444.119 413.619 442.735 415.199C441.37 416.758 439.903 417.818 438.333 418.378C436.744 418.96 435.126 419.087 433.477 418.76C431.831 418.472 430.216 417.766 428.634 416.641L431.432 413.062C432.388 413.713 433.358 414.135 434.344 414.327C435.31 414.541 436.249 414.488 437.161 414.17C438.093 413.87 438.947 413.278 439.721 412.393C440.81 411.15 441.371 409.892 441.406 408.62C441.443 407.387 440.977 406.347 440.008 405.498C439.355 404.927 438.689 404.604 438.009 404.53C437.33 404.456 436.499 404.64 435.516 405.082C434.533 405.524 433.282 406.252 431.762 407.266C429.709 408.632 427.906 409.566 426.352 410.065C424.798 410.565 423.375 410.66 422.085 410.349C420.794 410.037 419.538 409.347 418.316 408.277C417.094 407.207 416.295 405.931 415.919 404.448C415.564 402.983 415.639 401.431 416.146 399.79C416.654 398.188 417.601 396.598 418.984 395.018Z" fill="black"/>
<path d="M406.919 409.107L419.69 437.434L415.353 441.151L389.315 424.193L392.791 421.214L414.543 435.816L403.443 412.086L406.919 409.107ZM408.276 418.177L409.906 422.145L401.742 429.141L398.071 426.923L408.276 418.177Z" fill="black"/>
<path d="M380.818 430.275L396.794 455.454L381.048 465.445L378.866 462.005L393.016 453.026L392.17 456.398L384.835 444.837L388.11 445.295L374.599 453.869L372.438 450.464L385.95 441.891L384.97 445.05L377.094 432.637L380.818 430.275Z" fill="black"/>
<path d="M355.354 445.494L357.058 449.287L350.545 452.213L359.359 471.828L365.872 468.902L367.576 472.694L350.566 480.337L348.862 476.544L355.375 473.618L346.561 454.003L340.048 456.93L338.344 453.137L355.354 445.494Z" fill="black"/>
<path d="M318.066 459.193C320.354 458.537 322.458 458.561 324.377 459.263C326.27 459.973 327.954 461.325 329.429 463.32C330.904 465.315 332.096 467.9 333.007 471.076C333.933 474.306 334.299 477.158 334.105 479.631C333.911 482.104 333.199 484.143 331.97 485.748C330.713 487.361 328.941 488.495 326.653 489.151C324.366 489.807 322.262 489.783 320.342 489.081C318.422 488.379 316.738 487.027 315.29 485.024C313.816 483.029 312.615 480.417 311.689 477.187C310.779 474.011 310.421 471.186 310.615 468.713C310.782 466.248 311.493 464.209 312.75 462.596C314.006 460.983 315.778 459.849 318.066 459.193ZM319.2 463.15C317.854 463.536 316.84 464.263 316.156 465.333C315.445 466.411 315.083 467.84 315.069 469.621C315.055 471.401 315.396 473.503 316.09 475.926C316.785 478.348 317.609 480.311 318.564 481.814C319.527 483.344 320.596 484.377 321.769 484.915C322.923 485.487 324.173 485.58 325.519 485.194C326.865 484.808 327.889 484.063 328.592 482.959C329.276 481.889 329.621 480.45 329.627 478.642C329.641 476.862 329.3 474.76 328.606 472.338C327.912 469.915 327.087 467.953 326.132 466.45C325.177 464.947 324.126 463.923 322.979 463.377C321.806 462.84 320.546 462.764 319.2 463.15Z" fill="black"/>
<path d="M287.978 465.562C290.115 465.269 292.046 465.443 293.773 466.083C295.472 466.726 296.897 467.746 298.049 469.143C299.205 470.567 300.007 472.295 300.454 474.325L296 475.231C295.612 473.843 295.061 472.703 294.345 471.812C293.63 470.921 292.766 470.29 291.754 469.92C290.747 469.578 289.619 469.492 288.37 469.663C287.15 469.83 286.144 470.123 285.354 470.542C284.567 470.989 283.994 471.548 283.633 472.219C283.273 472.89 283.152 473.655 283.269 474.515C283.391 475.403 283.705 476.151 284.213 476.76C284.72 477.369 285.552 477.877 286.71 478.283C287.868 478.69 289.527 479.042 291.688 479.34C293.789 479.618 295.525 480.016 296.896 480.535C298.267 481.054 299.314 481.786 300.037 482.733C300.76 483.68 301.226 484.916 301.435 486.442C301.666 488.134 301.481 489.671 300.879 491.054C300.253 492.468 299.254 493.636 297.883 494.559C296.484 495.485 294.744 496.09 292.663 496.375C290.61 496.656 288.807 496.493 287.255 495.886C285.674 495.283 284.369 494.317 283.34 492.989C282.286 491.691 281.531 490.099 281.075 488.212L285.535 487.347C285.829 488.465 286.285 489.42 286.902 490.212C287.491 491.007 288.234 491.584 289.131 491.941C290.032 492.327 291.064 492.44 292.23 492.28C293.866 492.056 295.115 491.475 295.976 490.538C296.813 489.632 297.144 488.541 296.969 487.265C296.851 486.405 296.56 485.724 296.096 485.223C295.632 484.721 294.884 484.315 293.852 484.004C292.82 483.693 291.398 483.421 289.586 483.189C287.141 482.874 285.168 482.395 283.667 481.752C282.166 481.11 281.03 480.248 280.26 479.166C279.491 478.085 278.996 476.74 278.775 475.131C278.555 473.522 278.789 472.034 279.478 470.668C280.171 469.33 281.247 468.207 282.706 467.301C284.14 466.426 285.898 465.847 287.978 465.562Z" fill="black"/>
</svg>
